<svg xmlns="http://www.w3.org/2000/svg" viewBox="0 0 48 48"><circle cx="24" cy="24" r="20" fill="#24292e"/><path d="M24 8C15.2 8 8 15.2 8 24c0 7.1 4.6 13.1 10.9 15.2.8.1 1.1-.3 1.1-.8v-2.7c-4.5 1-5.4-2.2-5.4-2.2-.7-1.8-1.8-2.3-1.8-2.3-1.4-1 .1-1 .1-1 1.6.1 2.4 1.6 2.4 1.6 1.4 2.4 3.7 1.7 4.6 1.3.1-1 .5-1.7 1-2.1-3.6-.4-7.3-1.8-7.3-8 0-1.8.6-3.2 1.6-4.4-.2-.4-.7-2 .2-4.2 0 0 1.3-.4 4.4 1.7a15 15 0 018 0c3-2.1 4.4-1.7 4.4-1.7.9 2.2.3 3.8.2 4.2 1 1.1 1.6 2.6 1.6 4.4 0 6.2-3.8 7.6-7.4 8 .6.5 1.1 1.5 1.1 3v4.4c0 .5.3.9 1.1.8C35.4 37.1 40 31.1 40 24c0-8.8-7.2-16-16-16z" fill="#fff"/></svg>
