<svg xmlns="http://www.w3.org/2000/svg" viewBox="0 0 48 48" width="48" height="48">
  <!-- Guitar body - figure-8 shape (upper bout, waist, lower bout) -->
  <path d="M24 15 C30 15 34 17 34 21 C34 24.5 30 26 28 26.5 C31 27.5 37 30 37 36 C37 41 31 44 24 44 C17 44 11 41 11 36 C11 30 17 27.5 20 26.5 C18 26 14 24.5 14 21 C14 17 18 15 24 15 Z" fill="#C0792A" stroke="#8B5E3C" stroke-width="1.2"/>
  <!-- Body highlight -->
  <path d="M20 18 C22 17 26 17 27 19 C28 22 23 25 20 25 C18 24 18 20 20 18 Z" fill="#D4943A" opacity="0.4"/>
  <path d="M19 30 C21 29 26 29 27 32 C28 36 22 40 19 39 C17 38 17 32 19 30 Z" fill="#D4943A" opacity="0.3"/>
  <!-- Sound hole -->
  <circle cx="24" cy="33" r="4" fill="#3E2315" stroke="#5C3A1E" stroke-width="0.6"/>
  <!-- Rosette ring -->
  <circle cx="24" cy="33" r="5" fill="none" stroke="#D4A76A" stroke-width="0.5"/>
  <!-- Bridge -->
  <rect x="21.5" y="38.5" width="5" height="1.3" rx="0.5" fill="#5C3A1E"/>
  <!-- Neck -->
  <rect x="22.2" y="3.5" width="3.6" height="13" rx="0.6" fill="#8B5E3C" stroke="#5C3A1E" stroke-width="0.5"/>
  <!-- Frets -->
  <line x1="22.2" y1="6.5" x2="25.8" y2="6.5" stroke="#D4A76A" stroke-width="0.5"/>
  <line x1="22.2" y1="9" x2="25.8" y2="9" stroke="#D4A76A" stroke-width="0.5"/>
  <line x1="22.2" y1="11.5" x2="25.8" y2="11.5" stroke="#D4A76A" stroke-width="0.5"/>
  <line x1="22.2" y1="14" x2="25.8" y2="14" stroke="#D4A76A" stroke-width="0.5"/>
  <!-- Headstock -->
  <path d="M21.5 4 L21.5 1.5 Q21.5 0.5 22.5 0.5 L25.5 0.5 Q26.5 0.5 26.5 1.5 L26.5 4 Z" fill="#5C3A1E"/>
  <!-- Tuning pegs -->
  <circle cx="20.5" cy="1.5" r="0.9" fill="#C0C0C0" stroke="#999" stroke-width="0.3"/>
  <circle cx="20.5" cy="3.2" r="0.9" fill="#C0C0C0" stroke="#999" stroke-width="0.3"/>
  <circle cx="27.5" cy="1.5" r="0.9" fill="#C0C0C0" stroke="#999" stroke-width="0.3"/>
  <circle cx="27.5" cy="3.2" r="0.9" fill="#C0C0C0" stroke="#999" stroke-width="0.3"/>
  <!-- Strings -->
  <line x1="23.2" y1="2" x2="23.2" y2="38.5" stroke="#E8DCC8" stroke-width="0.25"/>
  <line x1="24" y1="2" x2="24" y2="38.5" stroke="#E8DCC8" stroke-width="0.25"/>
  <line x1="24.8" y1="2" x2="24.8" y2="38.5" stroke="#E8DCC8" stroke-width="0.25"/>
</svg>
