<svg xmlns="http://www.w3.org/2000/svg" viewBox="0 0 48 48"><rect x="4" y="4" width="40" height="40" rx="2" fill="#C0C0C0" stroke="#808080" stroke-width="1"/><rect x="8" y="8" width="10" height="10" fill="#BDBDBD" stroke="#999" stroke-width=".5"/><rect x="19" y="8" width="10" height="10" fill="#BDBDBD" stroke="#999" stroke-width=".5"/><rect x="30" y="8" width="10" height="10" fill="#BDBDBD" stroke="#999" stroke-width=".5"/><rect x="8" y="19" width="10" height="10" fill="#BDBDBD" stroke="#999" stroke-width=".5"/><text x="11" y="27" font-size="9" font-weight="bold" fill="#0000FF" font-family="Arial">1</text><rect x="19" y="19" width="10" height="10" fill="#BDBDBD" stroke="#999" stroke-width=".5"/><circle cx="24" cy="24" r="3.5" fill="#333"/><line x1="24" y1="18" x2="24" y2="30" stroke="#333" stroke-width="1.5"/><line x1="18" y1="24" x2="30" y2="24" stroke="#333" stroke-width="1.5"/><rect x="30" y="19" width="10" height="10" fill="#BDBDBD" stroke="#999" stroke-width=".5"/><text x="33" y="27" font-size="9" font-weight="bold" fill="#008000" font-family="Arial">2</text><rect x="8" y="30" width="10" height="10" fill="#fff" stroke="#999" stroke-width=".5"/><rect x="19" y="30" width="10" height="10" fill="#fff" stroke="#999" stroke-width=".5"/><text x="22" y="38" font-size="9" font-weight="bold" fill="#FF0000" font-family="Arial">3</text><rect x="30" y="30" width="10" height="10" fill="#BDBDBD" stroke="#999" stroke-width=".5"/><path d="M33 33l4 4m0-4l-4 4" stroke="#F44336" stroke-width="1.5"/></svg>
